<?xml version="1.0" encoding="utf-8"?>
<!-- Generator: Adobe Illustrator 23.0.0, SVG Export Plug-In . SVG Version: 6.00 Build 0)  -->
<svg version="1.1" id="Layer_1" xmlns="http://www.w3.org/2000/svg" xmlns:xlink="http://www.w3.org/1999/xlink" x="0px" y="0px"
	 viewBox="0 0 1200 299.8" style="enable-background:new 0 0 1200 299.8;" xml:space="preserve">
<style type="text/css">
	.st0{display:none;fill:#DDF5FE;}
	.st1{fill:#55CDFC;}
	.st2{fill:#BAF7EA;}
	.st3{fill:#7F364D;}
	.st4{fill:#E85C94;}
	.st5{fill:#BAF7EB;}
	.st6{fill:#EF844C;}
	.st7{fill:#006295;}
</style>
<rect y="-100.2" class="st0" width="1200" height="400"/>
<g>
	<path class="st1" d="M1181.7,149.9V18.3c0-10.1,8.2-18.3,18.3-18.3l0,0v149.9H1181.7z"/>
	<rect x="1181.7" y="149.9" class="st2" width="18.3" height="149.9"/>
	<rect x="1047.3" y="196.2" class="st3" width="134.4" height="103.6"/>
	<path class="st4" d="M1181.7,196.2h-90v-13.6c0-49.7,40.3-90,90-90l0,0L1181.7,196.2L1181.7,196.2z"/>
</g>
<g>
	<rect y="152.9" class="st5" width="130" height="84"/>
	<path class="st6" d="M65,99.1H0v-65h0C35.9,34.1,65,63.2,65,99.1L65,99.1z"/>
	<rect y="236.8" class="st7" width="130" height="63"/>
	<rect y="119.7" class="st1" width="130" height="33.2"/>
	<rect y="99" class="st4" width="130" height="20.7"/>
</g>
</svg>
