<svg xmlns="http://www.w3.org/2000/svg" width="500" height="631.389"><path fill="#092A49" fill-rule="evenodd" d="M375.37 0H124.63C55.799 0 0 55.799 0 124.63v422.694c0 74.744 90.368 112.176 143.22 59.324l87.479-87.479A65.447 65.447 0 0 1 276.977 500h98.393C444.201 500 500 444.201 500 375.37V124.63C500 55.799 444.201 0 375.37 0zm10.024 342.368c.395 0 .789 0 1.316.132.132 0 .132 0 .263.132-.526-.132-1.052-.132-1.579-.264zm21.975 20.658c.131.132.131.132.131.263.132.526.132.921.132 1.315-.132-.525-.132-1.051-.263-1.578z" clip-rule="evenodd"/><path fill="#E85C94" fill-rule="evenodd" d="M368.421 92.105c21.801 0 39.474 17.673 39.474 39.474v236.658c0 21.801-17.673 39.474-39.474 39.474s-39.474-17.673-39.474-39.474V131.579c0-21.801 17.673-39.474 39.474-39.474z" clip-rule="evenodd"/><path fill="#BAF7EA" fill-rule="evenodd" d="M407.895 131.579c0 21.801-17.673 39.474-39.474 39.474H131.763c-21.801 0-39.474-17.673-39.474-39.474s17.673-39.474 39.474-39.474h236.658c21.801 0 39.474 17.673 39.474 39.474z" clip-rule="evenodd"/><path fill="#55CDFC" fill-rule="evenodd" d="M104.022 395.978c-15.415-15.415-15.415-40.409 0-55.824l236.487-236.487c15.415-15.415 40.409-15.415 55.824 0s15.415 40.409 0 55.824L159.846 395.978c-15.415 15.416-40.409 15.416-55.824 0z" clip-rule="evenodd"/></svg>
