<svg xmlns="http://www.w3.org/2000/svg" id="Layer_1" width="1000" height="418.798"><style>.st0{fill:#092A49}</style><path d="M226.265 4.209v24.342h31.315v88.771h27.588V28.551h31.314V4.209h-90.217z" class="st0"/><path d="M348.962 54.033V36.664h-25.813v80.657h25.813V79.516c0-12.171 11.335-19.955 28.222-19.955v-25.66c-12.324 0-22.568 7.302-28.222 20.132z" class="st0"/><path d="M444.528 36.664V47.39c-6.644-8.291-15.264-12.348-25.811-12.348-10.219 0-18.814 3.905-25.457 11.841-6.668 7.962-10.067 17.85-10.067 30.021s3.399 22.237 10.067 30.199c6.644 7.936 15.238 11.841 25.457 11.841 10.547 0 19.168-4.057 25.811-12.348v10.726h25.965V36.664h-25.965zm-4.868 54.211c-3.245 3.727-7.454 5.502-12.5 5.502-5.022 0-9.23-1.775-12.501-5.502-3.399-3.753-5.02-8.291-5.02-13.971s1.622-10.218 5.02-13.946c3.271-3.575 7.479-5.35 12.501-5.35 5.045 0 9.255 1.775 12.5 5.35 3.246 3.727 4.868 8.266 4.868 13.946s-1.622 10.219-4.868 13.971z" class="st0"/><path d="M558.782 43.637c-5.374-5.68-12.347-8.596-20.791-8.596-10.219 0-18.155 4.057-23.836 12.348V36.664h-25.964v80.657h25.964V69.779c0-8.444 5.351-14.123 13.616-14.123 7.785 0 13.16 5.68 13.16 14.123v47.542h25.965v-51.27c0-9.102-2.764-16.556-8.114-22.414z" class="st0"/><path d="M644.459 75.129c-6.668-3.727-10.878-4.868-18.509-6.643-7.125-1.471-8.748-1.952-12.805-3.423-4.056-1.293-5.376-2.916-5.376-5.502 0-3.905 4.057-6.821 9.737-6.821 6.339 0 10.725 3.727 11.359 9.077h23.377c0-7.784-3.245-14.275-9.913-19.296-6.643-5.046-14.91-7.48-25.128-7.48-10.244 0-18.509 2.434-24.823 7.15-6.491 4.868-9.736 11.03-9.736 18.662 0 11.512 8.596 19.473 25.787 23.53 1.141.152 2.586.482 4.539.964 3.905.811 5.198 1.293 8.113 1.952 4.717 1.293 7.633 3.245 7.633 6.314 0 4.057-4.387 6.998-10.396 6.998-6.973 0-11.663-3.753-12.475-8.925H581.02c0 7.936 3.55 14.427 10.522 19.473 6.999 5.173 15.924 7.784 26.776 7.784 10.548 0 19.321-2.434 26.294-7.48 6.821-4.868 10.219-11.03 10.219-18.662 0-7.935-3.728-13.944-10.372-17.672z" class="st0"/><path d="M670.246 36.664v80.657h25.813V36.664h-25.813zM683.229 0c-9.078 0-15.417 5.502-15.417 13.794 0 8.266 6.339 13.946 15.417 13.946 8.925 0 15.264-5.68 15.264-13.946C698.493 5.832 692.154 0 683.229 0z" class="st0"/><path d="M749.611 36.664V15.416h-25.965v21.248h-14.934V58.09h14.934v59.231h25.965V58.09h17.851V36.664h-17.851z" class="st0"/><path d="M779.632 36.664v80.657h25.787V36.664h-25.787zM792.614 0c-9.078 0-15.417 5.502-15.417 13.794 0 8.266 6.339 13.946 15.417 13.946 8.925 0 15.238-5.68 15.238-13.946C807.853 5.832 801.54 0 792.614 0z" class="st0"/><path d="M895.153 46.883c-8.267-7.936-18.637-11.841-31.467-11.841s-23.2 3.905-31.492 11.841c-8.267 7.962-12.475 17.85-12.475 30.021s4.208 22.237 12.475 30.199c8.291 7.936 18.662 11.841 31.492 11.841s23.2-3.905 31.467-11.841c8.291-7.962 12.349-18.028 12.349-30.199 0-12.171-4.057-22.059-12.349-30.021zm-18.966 43.992c-3.246 3.727-7.48 5.502-12.501 5.502-10.218 0-17.52-7.936-17.52-19.473 0-5.68 1.622-10.218 5.019-13.946 3.246-3.575 7.48-5.35 12.501-5.35 5.02 0 9.255 1.775 12.501 5.35 3.245 3.727 4.868 8.266 4.868 13.946s-1.623 10.219-4.868 13.971z" class="st0"/><path d="M991.886 43.637c-5.35-5.68-12.323-8.596-20.766-8.596-10.218 0-18.18 4.057-23.86 12.348V36.664h-25.964v80.657h25.964V69.779c0-8.444 5.35-14.123 13.642-14.123 7.784 0 13.134 5.68 13.134 14.123v47.542H1000v-51.27c0-9.102-2.765-16.556-8.114-22.414z" class="st0"/><g><path d="M323.038 165.194v-24.342h-78.857v113.113h27.587v-42.674h47.542v-23.378h-47.542v-22.719h51.27z" class="st0"/><path d="M406.94 183.526c-8.265-7.936-18.662-11.841-31.466-11.841-12.83 0-23.202 3.905-31.493 11.841-8.265 7.962-12.5 17.85-12.5 30.021s4.234 22.237 12.5 30.199c8.291 7.936 18.663 11.841 31.493 11.841 12.804 0 23.2-3.905 31.466-11.841 8.291-7.962 12.349-18.028 12.349-30.199 0-12.171-4.057-22.059-12.349-30.021zm-18.991 43.992c-3.246 3.727-7.456 5.502-12.475 5.502-10.244 0-17.521-7.936-17.521-19.473 0-5.68 1.622-10.218 5.02-13.946 3.245-3.575 7.454-5.35 12.501-5.35 5.019 0 9.229 1.775 12.475 5.35 3.245 3.727 4.868 8.266 4.868 13.946s-1.623 10.219-4.868 13.971z" class="st0"/><path d="M458.869 190.676v-17.369h-25.787v80.657h25.787v-37.806c0-12.171 11.359-19.955 28.247-19.955v-25.66c-12.349.001-22.567 7.303-28.247 20.133z" class="st0"/><path d="M599.722 173.307l-14.758 59.561-15.264-59.561h-23.023l-15.263 59.561-14.758-59.561h-26.624l22.871 80.657h32.786l12.5-43.993 12.501 43.993h32.937l22.72-80.657h-26.625z" class="st0"/><path d="M691.915 173.307v10.726c-6.668-8.291-15.264-12.348-25.813-12.348-10.218 0-18.814 3.905-25.482 11.841-6.644 7.962-10.041 17.85-10.041 30.021s3.397 22.237 10.041 30.199c6.668 7.936 15.264 11.841 25.482 11.841 10.548 0 19.144-4.057 25.813-12.348v10.726h25.939v-80.657h-25.939zm-4.868 54.211c-3.246 3.727-7.48 5.502-12.501 5.502-5.045 0-9.255-1.775-12.501-5.502-3.397-3.753-5.019-8.291-5.019-13.971s1.622-10.218 5.019-13.946c3.246-3.575 7.456-5.35 12.501-5.35 5.02 0 9.255 1.775 12.501 5.35 3.245 3.727 4.868 8.266 4.868 13.946s-1.623 10.219-4.868 13.971z" class="st0"/><path d="M761.365 190.676v-17.369h-25.813v80.657h25.813v-37.806c0-12.171 11.359-19.955 28.221-19.955v-25.66c-12.323.001-22.542 7.303-28.221 20.133z" class="st0"/><path d="M856.931 140.852v43.181c-6.644-8.291-15.24-12.348-25.787-12.348-10.219 0-18.84 3.905-25.483 11.841-6.642 7.962-10.066 17.85-10.066 30.021s3.423 22.237 10.066 30.199c6.643 7.936 15.264 11.841 25.483 11.841 10.547 0 19.143-4.057 25.787-12.348v10.726h25.964V140.852h-25.964zm-4.868 86.666c-3.246 3.727-7.456 5.502-12.475 5.502-5.046 0-9.256-1.775-12.501-5.502-3.423-3.753-5.046-8.291-5.046-13.971s1.623-10.218 5.046-13.946c3.245-3.575 7.454-5.35 12.501-5.35 5.019 0 9.229 1.775 12.475 5.35 3.245 3.727 4.868 8.266 4.868 13.946s-1.623 10.219-4.868 13.971z" class="st0"/></g><path d="M324.661 288.342c-7.456-7.303-17.04-10.878-28.551-10.878h-51.929v113.113h27.587v-35.549h24.342c11.512 0 21.096-3.575 28.551-10.878 7.479-7.277 11.207-16.532 11.207-27.891 0-11.359-3.728-20.614-11.207-27.917zm-31.645 43.334h-21.248v-29.869h21.248c8.927 0 14.783 6.161 14.783 14.782 0 8.595-6.161 15.087-14.783 15.087z" class="st0"/><path d="M373.521 327.289V309.92H347.71v80.657h25.811v-37.806c0-12.171 11.361-19.955 28.222-19.955v-25.66c-12.323 0-22.542 7.303-28.222 20.133z" class="st0"/><path d="M483.211 320.139c-8.267-7.936-18.662-11.841-31.467-11.841-12.83 0-23.225 3.905-31.492 11.841-8.265 7.962-12.501 17.85-12.501 30.021s4.235 22.237 12.501 30.199c8.267 7.936 18.662 11.841 31.492 11.841 12.805 0 23.2-3.905 31.467-11.841 8.267-7.962 12.323-18.028 12.323-30.199 0-12.171-4.056-22.06-12.323-30.021zm-18.991 43.992c-3.246 3.727-7.456 5.502-12.476 5.502-10.243 0-17.546-7.936-17.546-19.473 0-5.68 1.623-10.218 5.046-13.946 3.245-3.575 7.454-5.35 12.5-5.35 5.02 0 9.23 1.775 12.476 5.35 3.245 3.727 4.868 8.266 4.868 13.946s-1.623 10.218-4.868 13.971z" class="st0"/><path d="M522.817 273.256c-9.078 0-15.417 5.502-15.417 13.794 0 8.266 6.339 13.946 15.417 13.946 8.925 0 15.238-5.68 15.238-13.946 0-7.963-6.313-13.794-15.238-13.794z" class="st0"/><path d="M535.621 309.92v77.767c0 25.305-14.655 30.681-25.787 31.112-6.796.254-12.298-1.344-12.298-1.344v-21.806c11.588 0 12.298-7.962 12.298-7.962V309.92h25.787z" class="st0"/><path d="M637.705 350.642c0-12.323-4.057-22.541-12.349-30.503-8.265-7.936-18.637-11.841-31.467-11.841-12.83 0-23.2 3.905-31.492 11.841-8.265 7.962-12.475 17.85-12.475 30.021s4.209 22.237 12.475 30.199c8.291 7.936 18.662 11.841 31.492 11.841 10.067 0 18.992-2.764 26.928-8.443 7.962-5.68 12.982-12.83 15.417-21.578h-26.447c-2.586 6.491-8.444 10.37-15.569 10.37-8.924 0-15.086-6.491-16.886-16.862h60.194c.179-1.622.179-3.245.179-5.045zm-59.233-10.219c2.765-8.266 8.267-12.475 16.229-12.475 7.784 0 14.123 4.691 16.227 12.475h-32.456z" class="st0"/><path d="M691.586 369.633c-10.219 0-17.698-8.266-17.698-19.473 0-11.182 7.479-19.296 17.698-19.296 8.265 0 14.757 5.502 16.557 13.464h25.939c-.811-10.548-5.35-19.144-13.286-25.964-8.114-6.643-17.851-10.066-29.388-10.066-12.804 0-23.2 3.905-31.466 11.841-8.291 7.962-12.501 17.85-12.501 30.021s4.209 22.237 12.501 30.199c8.265 7.936 18.662 11.841 31.466 11.841 11.538 0 21.274-3.423 29.388-10.218 7.936-6.669 12.475-15.264 13.286-25.812h-25.787c-1.8 7.961-8.291 13.463-16.709 13.463z" class="st0"/><path d="M782.284 309.92v-21.248h-25.965v21.248H741.41v21.426h14.909v59.231h25.965v-59.231h17.849V309.92h-17.849z" class="st0"/><g id="Artboard-Copy-4_2_"><path fill="#092A49" fill-rule="evenodd" d="M145.423 12.367H53.627C28.428 12.367 8 32.795 8 57.994v154.748c0 27.364 33.084 41.067 52.433 21.718l32.026-32.026a23.962 23.962 0 0 1 16.942-7.018h36.022c25.199 0 45.627-20.428 45.627-45.627V57.994c-.001-25.199-20.428-45.627-45.627-45.627zm3.669 125.34c.145 0 .289 0 .482.048.048 0 .048 0 .096.048-.192-.047-.385-.047-.578-.096zm8.045 7.563c.048.048.048.048.048.096.048.193.048.337.048.482-.048-.192-.048-.385-.096-.578z" clip-rule="evenodd" transform="translate(-8 -8)"/></g><path fill="#E85C94" fill-rule="evenodd" d="M134.878 38.086c7.981 0 14.451 6.47 14.451 14.451v86.64c0 7.981-6.47 14.451-14.451 14.451-7.981 0-14.451-6.47-14.451-14.451v-86.64c0-7.98 6.47-14.451 14.451-14.451z" clip-rule="evenodd"/><path fill="#BAF7EA" fill-rule="evenodd" d="M149.33 52.538c0 7.981-6.47 14.451-14.451 14.451h-86.64c-7.981 0-14.451-6.47-14.451-14.451 0-7.981 6.47-14.451 14.451-14.451h86.64c7.981-.001 14.451 6.47 14.451 14.451z" clip-rule="evenodd"/><path fill="#55CDFC" fill-rule="evenodd" d="M38.082 149.334c-5.644-5.644-5.644-14.794 0-20.437l86.578-86.578c5.644-5.644 14.794-5.644 20.437 0 5.644 5.644 5.644 14.794 0 20.437l-86.578 86.578c-5.643 5.644-14.793 5.644-20.437 0z" clip-rule="evenodd"/></svg>
