<svg version="1" xmlns="http://www.w3.org/2000/svg" width="841.333" height="841.333" viewBox="0 0 631.000000 631.000000"><path d="M171.5 1.5c-28.2 4.5-51.1 16.2-70.7 36.2C83.9 55 73.5 74.3 67.4 100c-1.7 7.1-1.9 20.1-2.1 230.8-.3 215.9-.3 223.5 1.6 232.5 3.3 16.6 9.1 28.1 20 39.9 20 21.7 50.5 31.8 78.5 25.9 10.3-2.1 22.6-7.3 31.4-13.2 2.6-1.8 27.7-26 55.7-53.9 54.1-53.7 53.9-53.5 69.2-59.2 5.6-2.1 7.5-2.2 69.3-2.8 54.1-.6 64.7-.9 71.7-2.4 26-5.3 47-16.4 64.9-34.1 19.8-19.6 31.5-42.8 35.8-70.5 1.5-9.4 1.6-24.8 1.3-148-.3-127.8-.4-138-2.1-145-6.1-25.9-16.5-45.1-33.9-62.8C511.2 19.5 491.3 8.6 465 2.4c-7-1.7-17-1.8-146.5-2-109.5-.2-140.7 0-147 1.1zm277 93.4c8.4 3.4 18.3 13.4 21.4 21.6l2.3 6-.2 125.8c-.1 118.8-.2 126.2-1.9 131.7-5.6 18.1-24.5 29.5-43 26.1-13-2.4-23.4-10.4-29-22.1l-2.6-5.5-.3-75.8c-.1-41.6-.6-75.7-1-75.7S355 265.5 308 312.5c-47 47.1-87.5 86.9-90 88.4-19.8 12.7-46.8 4.7-56.9-16.8-2.3-4.9-2.6-6.8-2.6-16.1 0-18.3-7.1-9.9 92-109 47.6-47.6 86.5-86.8 86.5-87.2 0-.5-32.8-.8-72.8-.8-80.1 0-78.5.1-88.4-6.2-6.5-4.1-11.5-9.9-15.1-17.7-2.8-5.9-3.1-7.6-3.1-15.6s.3-9.8 3-15.5c5.3-11.2 13.4-18.6 24.3-22.1 5.3-1.7 12.8-1.8 131.6-1.6l126 .2 6 2.4z"/></svg>